PathFileType	4	(X/Y/Z)	output.trc
DataRate	CameraRate	NumFrames	NumMarkers	Units	OrigDataRate	OrigDataStartFrame	OrigNumFrames
200	200	4	68	mm	200	74	295
Frame#	Time			LASI			RASI			RSACR			LSACR			USACR			LBAR			RBAR			RHEE			RMT1			RMT5			RMT2			LHEE			LMT1			LMT5			LMT2			LMMAL			LMFC			LLFC			LLMAL			LTIB4			LTIB2			LTIB3			LTIB1			RMMAL			RMFC			RLFC			RLMAL			RTIB1			RTIB2			RTIB3			RTHI1			RTHI4			RTHI3			RTHI2			LTHI1			LTHI4			LTHI3			LTHI2			FHD			LBHD			RBHD			C7			T10			CLAV			LSHO			RSHO			LRAD			LUL			LRFIN			RRAD			RUL			RUFIN			RLEP			RMEP			LLEP			LMEP			LDUPA			LMUPA			LUUPA			RDUPA			RUUPA			RMUPA			LHJC			RHJC			LKJC			RKJC			LAJC			RAJC
		X1	Y1	Z1	X2	Y2	Z2	X3	Y3	Z3	X4	Y4	Z4	X5	Y5	Z5	X6	Y6	Z6	X7	Y7	Z7	X8	Y8	Z8	X9	Y9	Z9	X10	Y10	Z10	X11	Y11	Z11	X12	Y12	Z12	X13	Y13	Z13	X14	Y14	Z14	X15	Y15	Z15	X16	Y16	Z16	X17	Y17	Z17	X18	Y18	Z18	X19	Y19	Z19	X20	Y20	Z20	X21	Y21	Z21	X22	Y22	Z22	X23	Y23	Z23	X24	Y24	Z24	X25	Y25	Z25	X26	Y26	Z26	X27	Y27	Z27	X28	Y28	Z28	X29	Y29	Z29	X30	Y30	Z30	X31	Y31	Z31	X32	Y32	Z32	X33	Y33	Z33	X34	Y34	Z34	X35	Y35	Z35	X36	Y36	Z36	X37	Y37	Z37	X38	Y38	Z38	X39	Y39	Z39	X40	Y40	Z40	X41	Y41	Z41	X42	Y42	Z42	X43	Y43	Z43	X44	Y44	Z44	X45	Y45	Z45	X46	Y46	Z46	X47	Y47	Z47	X48	Y48	Z48	X49	Y49	Z49	X50	Y50	Z50	X51	Y51	Z51	X52	Y52	Z52	X53	Y53	Z53	X54	Y54	Z54	X55	Y55	Z55	X56	Y56	Z56	X57	Y57	Z57	X58	Y58	Z58	X59	Y59	Z59	X60	Y60	Z60	X61	Y61	Z61	X62	Y62	Z62	X63	Y63	Z63	X64	Y64	Z64	X65	Y65	Z65	X66	Y66	Z66	X67	Y67	Z67	X68	Y68	Z68
73	0.365000	133.632553	918.034180	-762.539795	129.382858	918.657532	-984.887512	309.116638	950.416626	-912.626709	308.286011	953.627197	-852.700134	297.390808	966.758850	-882.578674	1270.813354	26.296663	346.498596	1226.434814	26.270760	-1876.978394	323.051331	39.833790	-1019.655518	128.148178	43.456390	-1043.326416	165.075012	34.821560	-1113.679932	140.179230	42.679771	-1079.984863	326.262787	45.844299	-745.157715	134.387711	46.344261	-736.459351	169.957275	33.447819	-662.796509	143.163467	45.934132	-698.041809	276.690399	72.956490	-778.680847	232.973389	456.901031	-829.264404	219.409149	454.018097	-721.602051	278.801880	69.165504	-700.996399	290.315613	209.668045	-691.573547	313.955170	271.014679	-691.562622	263.519592	268.214203	-684.649475	301.571167	314.347137	-687.341614	275.164795	68.383209	-994.105347	235.352097	446.611450	-935.551575	220.671967	461.380646	-1041.449829	284.673981	72.259132	-1068.604370	257.167358	319.334534	-1082.838501	307.615509	314.038208	-1077.279785	276.646332	256.199219	-1081.428467	241.855499	784.001465	-1060.246704	243.009583	635.274597	-1064.706543	191.540771	637.119080	-1066.844971	219.342377	697.130432	-1070.311035	238.542740	778.983154	-699.066772	236.416412	646.528198	-694.917114	185.849564	637.491516	-693.651917	200.292130	701.237671	-689.608643	129.893417	1592.942871	-775.106689	240.648804	1575.965820	-786.064758	252.260101	1571.543579	-909.557129	262.476227	1391.419556	-857.665710	285.381439	1007.692017	-877.691956	139.908997	1328.518677	-872.723877	243.792313	1380.886475	-724.743286	236.071991	1397.054810	-986.674072	163.943451	1357.762817	-222.496704	204.552460	1353.265991	-222.097916	150.502396	1337.120728	-130.601028	240.591568	1389.542480	-1500.502930	287.480804	1383.424683	-1499.626953	234.859756	1391.775391	-1590.649536	292.880646	1330.169800	-1271.181641	254.617157	1296.579468	-1271.715820	219.987106	1299.999756	-453.862488	179.171539	1277.562988	-466.660767	236.112320	1353.760376	-505.813385	200.230774	1371.344238	-536.351257	237.251602	1362.257935	-584.992249	265.788422	1382.549194	-1205.625000	256.496124	1384.281128	-1143.911743	215.615646	1385.538818	-1212.132446	226.820435	883.548157	-771.435547	226.785004	884.358521	-985.920288	226.191269	455.459564	-775.433228	228.012024	453.996033	-988.500732	277.746155	71.060997	-739.838623	279.919373	70.321167	-1031.354858
74	0.370000	133.600616	918.023315	-762.532227	129.359985	918.657166	-984.893555	309.091827	950.413940	-912.617737	308.248230	953.627197	-852.706116	297.358673	966.762878	-882.576599	1270.825195	26.308435	346.516785	1226.435791	26.273396	-1876.975220	323.052612	39.825577	-1019.657349	128.148026	43.446686	-1043.334473	165.070480	34.821232	-1113.677734	140.178024	42.674744	-1079.981445	326.262695	45.847076	-745.164124	134.379456	46.339611	-736.456482	169.955109	33.465115	-662.794434	143.167282	45.923897	-698.046204	276.692444	72.960945	-778.681763	232.945419	456.900696	-829.267761	219.388901	454.012268	-721.601624	278.791718	69.161896	-700.988464	290.298950	209.667068	-691.576477	313.984589	271.361908	-691.235901	263.515930	268.231049	-684.653931	301.577179	314.368317	-687.321594	275.164215	68.380508	-994.115540	235.329987	446.606506	-935.551147	220.648956	461.380341	-1041.456177	284.663452	72.255356	-1068.607178	257.148285	319.338867	-1082.849976	307.605011	314.057495	-1077.278442	276.625641	256.197968	-1081.433594	241.840500	783.996887	-1060.247681	243.035873	635.408203	-1064.852539	191.515396	637.120422	-1066.857544	219.311203	697.112915	-1070.313843	238.522690	778.974060	-699.065918	236.465210	646.579285	-695.490356	185.823380	637.482422	-693.689270	200.240036	701.217285	-689.608643	129.887131	1592.944702	-775.112305	240.650009	1575.955811	-786.049744	252.272461	1571.542969	-909.539429	262.481842	1391.414307	-857.676697	285.351959	1007.682373	-877.692566	139.910172	1328.524658	-872.727173	243.797974	1380.906494	-724.754333	236.077545	1397.051270	-986.680786	163.955109	1357.746948	-222.496750	204.567184	1353.247314	-222.104126	150.513916	1337.096558	-130.611694	240.624512	1389.504272	-1500.506714	287.501740	1383.395142	-1499.636353	234.883499	1391.730469	-1590.660645	292.885803	1330.157715	-1271.174805	254.617279	1296.567383	-1271.712280	219.980164	1299.995850	-453.878235	179.173630	1277.557373	-466.662598	236.124863	1353.771851	-505.812500	200.222610	1371.350830	-536.375610	237.310638	1362.406616	-584.979248	265.795471	1382.578247	-1205.604126	256.496307	1384.267944	-1143.911011	215.618286	1385.533447	-1212.137329	226.790512	883.541504	-771.434753	226.764099	884.356018	-985.919678	226.167160	455.456482	-775.434692	227.989471	453.993408	-988.503662	277.742065	71.061417	-739.835083	279.913818	70.317932	-1031.361328
75	0.375000	133.578537	918.020996	-762.536926	129.328812	918.657593	-984.888611	309.062744	950.415527	-912.613708	308.231262	953.614563	-852.689331	297.325989	966.760376	-882.573120	1270.809814	26.280643	346.487823	1226.430420	26.275360	-1876.972168	323.053864	39.831631	-1019.663086	128.145035	43.449753	-1043.332520	165.062073	34.825222	-1113.687744	140.181976	42.678322	-1079.983521	326.264740	45.845737	-745.170776	134.382019	46.340508	-736.459656	169.955460	33.456970	-662.792175	143.167923	45.930328	-698.050537	276.690857	72.962502	-778.681030	232.953766	456.887177	-829.259094	219.376389	454.009430	-721.608643	278.802826	69.163292	-700.990723	290.287292	209.671356	-691.576904	313.978760	271.371887	-691.239685	263.487640	268.227203	-684.653687	301.564178	314.375488	-687.328064	275.157654	68.376945	-994.113586	235.307297	446.613159	-935.554199	220.626801	461.379303	-1041.453003	284.672638	72.254074	-1068.608765	257.136414	319.327942	-1082.855469	307.581055	314.049255	-1077.283691	276.608612	256.202667	-1081.438965	241.787415	783.990906	-1060.247559	242.954636	635.260864	-1064.688110	191.493195	637.107422	-1066.864502	219.318710	697.114502	-1070.303467	238.490189	778.974243	-699.070862	236.502426	646.809814	-694.762878	185.800781	637.481995	-693.698303	200.233231	701.213806	-689.606262	129.876297	1592.942993	-775.111511	240.657837	1575.952881	-786.034668	252.288895	1571.537476	-909.534668	262.510681	1391.396362	-857.661316	285.326324	1007.674683	-877.684570	139.927185	1328.528076	-872.736206	243.812454	1380.902710	-724.749207	236.072632	1397.044678	-986.685852	163.978851	1357.731079	-222.502731	204.567078	1353.220825	-222.103836	150.525162	1337.063965	-130.606003	240.650848	1389.461182	-1500.515015	287.534058	1383.341553	-1499.617798	234.931076	1391.670410	-1590.678345	292.886902	1330.136841	-1271.174927	254.608154	1296.549927	-1271.716309	219.997833	1299.990112	-453.881439	179.180603	1277.547729	-466.674530	236.139465	1353.753662	-505.822845	200.236313	1371.346191	-536.363220	237.352127	1362.432373	-584.954285	265.801178	1382.523926	-1205.615723	256.487946	1384.255005	-1143.917480	215.628525	1385.513916	-1212.142822	226.766663	883.536621	-771.432373	226.726318	884.354675	-985.916626	226.165070	455.448303	-775.433838	227.967041	453.996216	-988.503601	277.746826	71.062897	-739.835876	279.915161	70.315506	-1031.361206
76	0.380000	133.545700	918.018494	-762.530518	129.299713	918.657532	-984.896179	309.032196	950.409424	-912.620239	308.197083	953.621033	-852.698853	297.297821	966.752625	-882.568115	1270.844482	26.313732	346.468201	1226.426514	26.265860	-1876.955200	323.048096	39.832092	-1019.661621	128.137802	43.457611	-1043.338745	165.063293	34.822170	-1113.688599	140.175156	42.680344	-1079.984863	326.251373	45.839382	-745.177185	134.378174	46.339935	-736.462952	169.957458	33.450630	-662.803955	143.165604	45.926487	-698.047607	276.698822	72.961227	-778.680603	232.909409	456.885559	-829.260437	219.362793	454.012665	-721.611023	278.791229	69.153526	-700.994568	290.289215	209.669556	-691.584351	313.874817	271.265900	-691.399048	263.489136	268.221619	-684.656067	301.509949	314.374573	-687.354858	275.159668	68.381241	-994.117798	235.283661	446.609772	-935.553101	220.619522	461.375916	-1041.451660	284.673065	72.260406	-1068.613525	257.127167	319.328522	-1082.858032	307.567657	314.055054	-1077.285156	276.594238	256.198181	-1081.432007	241.776535	783.997559	-1060.250854	242.983521	635.422241	-1064.841797	191.473221	637.120544	-1066.885986	219.295776	697.087402	-1070.292480	238.440781	778.970764	-699.068420	236.442215	646.565735	-695.391846	185.791611	637.474182	-693.690857	200.205872	701.188965	-689.623962	129.874863	1592.947876	-775.119385	240.646439	1575.974854	-786.027283	252.309250	1571.540283	-909.517822	262.509033	1391.386841	-857.662720	285.298004	1007.670776	-877.683167	139.939865	1328.524170	-872.730469	243.798233	1380.871460	-724.760071	236.079849	1397.040161	-986.693481	163.995026	1357.711060	-222.504181	204.571106	1353.203613	-222.116699	150.536636	1337.025879	-130.614319	240.673767	1389.420532	-1500.523926	287.563019	1383.315430	-1499.623291	234.944595	1391.614990	-1590.687866	292.889862	1330.123901	-1271.168213	254.646103	1296.532593	-1271.696777	219.995773	1299.982544	-453.899902	179.188339	1277.551880	-466.682831	236.142380	1353.750488	-505.823242	200.256531	1371.335327	-536.371094	237.341812	1362.230591	-584.992432	265.803741	1382.546143	-1205.608643	256.495148	1384.249634	-1143.916748	215.627472	1385.505981	-1212.148682	226.727859	883.536743	-771.432617	226.702820	884.354858	-985.922424	226.136108	455.449097	-775.435730	227.951599	453.992859	-988.502380	277.745026	71.057373	-739.837585	279.916382	70.320824	-1031.365723
